<svg fill="#fff" viewBox="0 0 64 64" xmlns="http://www.w3.org/2000/svg"><path d="m44.5 9a10.51 10.51 0 0 1 10.5 10.5v25a10.51 10.51 0 0 1 -10.5 10.5h-25a10.51 10.51 0 0 1 -10.5-10.5v-25a10.51 10.51 0 0 1 10.5-10.5zm0-2h-25a12.5 12.5 0 0 0 -12.5 12.5v25a12.5 12.5 0 0 0 12.5 12.5h25a12.5 12.5 0 0 0 12.5-12.5v-25a12.5 12.5 0 0 0 -12.5-12.5z"/><path d="m32 22a10 10 0 1 1 -10 10 10 10 0 0 1 10-10m0-2a12 12 0 1 0 12 12 12 12 0 0 0 -12-12z"/><path d="m46 15a2 2 0 1 1 -2 2 2 2 0 0 1 2-2m0-2a4 4 0 1 0 4 4 4 4 0 0 0 -4-4z"/></svg>